<?xml version="1.0" encoding="UTF-8"?>
<svg id="Layer_1" xmlns="http://www.w3.org/2000/svg" version="1.1" viewBox="0 0 525 334">
  <!-- Generator: Adobe Illustrator 30.1.0, SVG Export Plug-In . SVG Version: 2.1.1 Build 136)  -->
  <path d="M72.3,221.6l9.3,9.3c-6.5,6.8-15.2,10.5-26.1,10.5-20.3,0-36.5-15.3-36.5-38.3s16.1-38.3,36.7-38.3,19.6,3.8,26.1,10.7l-9.3,9.3c-4.3-4.3-10.2-6.6-16.8-6.6-13.3,0-23.4,9-23.4,24.9s10.1,25,23.4,25,12.5-2.2,16.7-6.5h0Z" style="fill: #14315c;"/>
  <path d="M112.4,240.5h-13.3v-74.9h13.3v74.9Z" style="fill: #14315c;"/>
  <path d="M149.4,223.6v16.9h-13.3v-74.9h29c15.9,0,29,12,29,29s-13,29-29,29h-15.7,0ZM149.4,179v31.3h15.7c8.7,0,15.7-6,15.7-15.7s-7.1-15.6-15.7-15.6h-15.7Z" style="fill: #14315c;"/>
  <path d="M253,219.9l15.1,20.7h-16.3l-12.6-16.8h-14.2v16.8h-13.3v-74.9h29c15.9,0,28.9,12,28.9,29s-16.5,25.2-16.5,25.2h0ZM224.9,179v31.3h15.7c8.7,0,15.7-6,15.7-15.7s-7-15.6-15.7-15.6h-15.7Z" style="fill: #14315c;"/>
  <path d="M303.2,240.5h-13.2v-74.9h13.2v74.9Z" style="fill: #14315c;"/>
  <path d="M317.6,210.9h19.2l16.3-45.3h13.8l27,74.9h-13.6l-6.1-17.2h-28.3l-6.2,17.2h-13.6l6.2-17.2h-14.9v-12.4h0ZM360.1,183.7l-9.8,27.2h19.6l-9.7-27.2Z" style="fill: #14315c;"/>
  <path d="M454.3,165.6h13v74.9h-17.7l-27.6-54.9v54.9h-13v-74.9h17.7l27.6,55v-55Z" style="fill: #14315c;"/>
  <path d="M503.6,240.5h-13.3v-74.9h13.3v74.9Z" style="fill: #14315c;"/>
  <path d="M228.9,137.8c-.2-.9,2.3-3.4,2.9-5.5.8-3,1.3-6.9-4.7-5.2-6.6,2-4,7.6-2.4,10.1,1.6,2.5.8,4.3-.2,5.8-1.1,1.5,2.2,3,4.1,2.5,1.9-.5,3.7-1.6,4.4-3.1.7-1.5-3.8-3.7-4-4.6h0ZM228.3,133.9c-.6.9-1.3,1.7-2,.5,0,0-1.9-3.5,0-4.5,2.9-1.4,3.1,0,3.1.6,0,1.4-.7,2.7-1.1,3.3ZM240,67.3c.7.3,1.5,0,1.9-.8,1.1-1.8.4-9.5,0-10.7-.4-1.3-.8-1.9-1.3-1.8-.6,0-.7.8-.8,1.4l-1,9c-.3,1.6.3,2.6,1.1,2.9h0ZM254.4,127.3c-.2-1,2.3-3.4,2.9-5.5.8-3,1.3-6.9-4.7-5.2-6.6,2-4,7.6-2.4,10.1,1.6,2.5.8,4.3-.2,5.8-1.1,1.5,2.2,3,4.1,2.5,1.9-.5,3.7-1.6,4.4-3.1.7-1.5-3.8-3.7-4.1-4.6h0ZM253.8,123.4c-.6.9-1.3,1.8-2,.5,0,0-1.9-3.5,0-4.5,2.9-1.4,3.1,0,3.1.6,0,1.4-.7,2.7-1.2,3.3ZM277.6,117.7c-.2-1,2.3-3.4,2.9-5.5.8-3,1.3-7-4.7-5.2-6.6,2-4,7.6-2.4,10.1,1.6,2.5.8,4.3-.2,5.8-1.1,1.5,2.2,3,4.1,2.5,1.9-.5,3.7-1.6,4.4-3.1.8-1.5-3.8-3.7-4.1-4.6h0ZM277,113.8c-.6.9-1.3,1.8-2,.5,0,0-1.9-3.5,0-4.5,2.9-1.4,3.1,0,3.1.6,0,1.4-.7,2.7-1.1,3.3ZM340.3,64.4c0-.2-.4-.5-1-.2-.8.4-17.3,7.2-38.2,15.9-26.8,11.1-61.7,25.5-86.8,36-5.5-3.1-10.9-6.2-15.4-11,1.3.6,2.8,1.1,4.2,1.5,16.9,4.6,37.1-4,45.4-9.2,11.5-7.2,22.6-18.1,25.8-23.8,2.1-3.8,2-7.1,1.1-9.6,2-1.5,5-4.5,5.6-8.6.4-3.2,0-5.5-.8-7.5,2.3-3.4,11.9-18,13.7-23.4.7-2.2.7-5.2-.4-8.1,0,0,.1-.2.2-.2,1.1-2.2,1.3-4.8.5-7.3-1-3.1-3.4-5.8-6.5-7.3-5.9-3-12.8-1.3-15.4,3.8-.7,1.4-1,2.9-1,4.4,0,0,0,0,0,0,0,0-6.9,9.2-20.3,14.8-13.6,5.7-25.7,5.9-25.8,5.9s-.2,0-.3,0c-.7-1.2-1.5-2.3-2.4-3.4-3.5-3.9-8.4-6.2-13.6-6.5-5.3-.3-10.3,1.5-14.2,5-3.9,3.5-6.2,8.4-6.5,13.6-.2,4.1.8,8,2.8,11.2-4.4,6.4-11.6,20-7.6,35.5,4.9,18.8,14.8,26.6,25.2,32.7-14.8,6.2-25.2,10.6-26.5,11.4-3.4,2-4,4.2-3.4,5.4.4,1,1.6,1.5,2.7,1.1,5.8-2.3,141.9-55.9,148-59.3,5.2-2.9,11.8-11.4,11-12.8ZM276.6,7.6c1.3-2.6,5.2-3.3,8.6-1.6,2,1,3.4,2.6,4,4.4,0,.2.1.4.2.6-.9-.6-1.9-1.2-3-1.7-3.7-1.4-7.2-1.4-10.2-.2,0-.6.2-1.1.4-1.6ZM274.5,17.6c.9-1.9,3.6-6,10.1-3.5,4.6,1.7,5.1,6.6,4.4,8.9-1.2,3.7-7.6,14-11.9,20.4,0,0-.1-.2-.2-.2-1.3-1.6-2.6-5.3-2.7-7,0-1.5-.8-3-2-4.1.1-3.4.7-10.8,2.3-14.4h0ZM269.1,36.3c0,2.7,1.7,7.5,3.8,10.1,2.6,3.1,3.5,4.4,2.9,8.3-.3,1.9-1.9,3.7-3.2,4.9-.3-.3-.6-.6-.8-.8-1.1-1.2-2.5-2-3.9-2.6,0,0,0,0,0,0-2.6-3.2-4-7.8-4.3-10.2-.3-2,.5-7,3.6-9.8.5-.5,1.1-.8,1.3-.7.3.1.6.6.6.8h0ZM252.8,29.1c6.9-2.9,12.1-6.5,15.8-9.7-.9,3.9-1.3,8.5-1.4,11.1-1.2.3-2.4.9-3.5,1.9-1.9,1.8-3.2,4-4,6.2-.7.4-1.4.7-2.1,1.1-7.1,3.5-17.2,5.2-17.3,5.2l.8,5c.4,0,9.8-1.7,17.4-5.1,0,.6,0,1.2,0,1.7.3,2,1.2,5.6,3,9.1-1.1.3-2.1.7-2.9,1.4l-2.4,2.3c-3.1,3.1-8.2,8.1-16.9,14.2-1.1.8-2.2,1.4-3.3,2.1-.6-3.8-1.8-11.6-2.8-16-1.1-5.3-4.7-19.7-5.9-24.4,4.4-.3,14.3-1.6,25.3-6.2h0ZM194.4,39.4c.2-3.7,1.8-7,4.5-9.5,2.8-2.5,6.4-3.7,10.1-3.6,7.6.4,13.5,6.9,13.1,14.5-.4,7.6-7,13.4-14.6,13-7.7-.4-13.5-6.9-13.1-14.5h0ZM189.7,89.9h0c-.6-1.6-1.1-3.4-1.6-5.3-3.3-12.5,2.1-23.9,6-30.1,3.3,3.1,7.6,5.1,12.5,5.4,8.4.5,15.9-4.5,19.1-11.7.9,3.4,1.7,6.8,2.3,9.2-1.1-1.4-2.6-2.8-3.2-1.6-1.2,2.2-1.9,4.1-5,4.4-6.7.5-9.9,1.1-6.5,6.4,3.4,5.5,6.5,3.2,7.4.6.7-2,1.2-4.6,2.1-4.9.9-.3,5.7,1.7,6.4.5.8,4.5,2,12.5,2.3,15-1.6.6-3,1.1-4.5,1.5-1.2-.6-5.4-2.6-9.7-5.2-3.7-2.2-7.4-4.9-9.6-6.5l-1.6-1.2c-.9-.6-1.6-.4-1.9,0-.1.2-.2.5-.2.8,0,.6.3,1.4,1.1,2.1l.6.6c2.3,2.2,8.6,8.1,13.3,10.8-4.9.4-8.3,0-8.4,0l-.7,5c.7,0,17.9,2.3,32.4-7.9,9-6.3,14.3-11.6,17.5-14.7l2.1-2c1.2-1,4.5-.5,6.2,1.2,2.5,2.6,3.7,5.1,1.7,8.8-2.4,4.4-12.4,14.7-24.1,22-8.9,5.6-27.3,12.4-41.4,8.6-6.5-1.8-11.5-5.8-14.7-11.8h0Z" style="fill: #14315c;"/>
  <path d="M3.3,268.9c1.4,0,3.4,0,5,1.1,1.2.8,2.2,2.4,2.2,4.5,0,3.1-2,5.4-5.1,5.6l6.5,9.1h-2.8l-6.2-8.9h-.6v8.9H0v-20.4h3.3ZM2.3,278.4h1.4c2.8,0,4.5-1.3,4.5-3.7s-.3-2.3-1.6-3c-.9-.5-2-.6-2.9-.6h-1.4v7.3Z" style="fill: #14315c;"/>
  <path d="M29,271.1h-8.3v6.1h8.1v2.1h-8.1v7.9h8.3v2.1h-10.6v-20.4h10.6v2.1Z" style="fill: #14315c;"/>
  <path d="M45.3,273c-.3-.6-.7-1.2-1.2-1.5-.4-.3-1.1-.7-2.3-.7-2,0-3.4,1.2-3.4,3.1s.2,1.2.8,1.8c.6.6,1.4.9,2.1,1.3l2,.9c1.2.5,2.3,1.1,3.1,1.9,1,1,1.5,2.2,1.5,3.7,0,3.8-2.8,6.3-6.4,6.3s-3-.3-4.4-1.7c-1-1-1.6-2.4-1.9-3.6l2.2-.6c.1,1.1.6,2,1.2,2.6.9.9,1.9,1.1,2.9,1.1,2.8,0,4.1-2,4.1-4s-.3-1.7-1-2.4c-.6-.6-1.4-.9-2.4-1.4l-1.8-.9c-.8-.4-1.8-.8-2.7-1.7-.9-.9-1.4-1.8-1.4-3.3,0-3.2,2.4-5.3,5.7-5.3s2.3.2,3.3.9c.8.6,1.5,1.4,2,2.3l-1.8,1.2h0Z" style="fill: #14315c;"/>
  <path d="M54,279.2c0-6.1,4.7-10.6,10.6-10.6s10.6,4.5,10.6,10.6-4.7,10.6-10.6,10.6-10.6-4.5-10.6-10.6ZM56.3,279.2c0,4.7,3.7,8.4,8.3,8.4s8.3-3.7,8.3-8.4-3.7-8.4-8.3-8.4-8.3,3.7-8.3,8.4Z" style="fill: #14315c;"/>
  <path d="M85.7,268.9c1.4,0,3.4,0,5,1.1,1.2.8,2.2,2.4,2.2,4.5,0,3.1-2,5.4-5.1,5.6l6.5,9.1h-2.8l-6.2-8.9h-.6v8.9h-2.3v-20.4h3.3ZM84.7,278.4h1.4c2.8,0,4.5-1.3,4.5-3.7s-.3-2.3-1.6-3c-.9-.5-2-.6-2.9-.6h-1.4v7.3Z" style="fill: #14315c;"/>
  <path d="M105.9,271.1v18.3h-2.3v-18.3h-5v-2.1h12.2v2.1h-5Z" style="fill: #14315c;"/>
  <path d="M170.7,268.9c1.4,0,3.4,0,5,1.1,1.2.8,2.2,2.4,2.2,4.5,0,3.1-2,5.4-5.1,5.6l6.5,9.1h-2.8l-6.2-8.9h-.6v8.9h-2.3v-20.4h3.3ZM169.7,278.4h1.4c2.8,0,4.5-1.3,4.5-3.7s-.3-2.3-1.6-3c-.9-.5-2-.6-2.9-.6h-1.4v7.3Z" style="fill: #14315c;"/>
  <path d="M196.4,271.1h-8.3v6.1h8.1v2.1h-8.1v7.9h8.3v2.1h-10.6v-20.4h10.6v2.1Z" style="fill: #14315c;"/>
  <path d="M212.8,273c-.3-.6-.7-1.2-1.2-1.5-.4-.3-1.1-.7-2.3-.7-2,0-3.4,1.2-3.4,3.1s.2,1.2.8,1.8c.6.6,1.4.9,2.1,1.3l2,.9c1.2.5,2.3,1.1,3.1,1.9,1,1,1.5,2.2,1.5,3.7,0,3.8-2.8,6.3-6.4,6.3s-3-.3-4.4-1.7c-1-1-1.6-2.4-1.9-3.6l2.2-.6c.1,1.1.6,2,1.2,2.6.9.9,1.9,1.1,2.9,1.1,2.8,0,4.1-2,4.1-4s-.3-1.7-1-2.4c-.6-.6-1.4-.9-2.4-1.4l-1.8-.9c-.8-.4-1.8-.8-2.7-1.7-.9-.9-1.4-1.8-1.4-3.3,0-3.2,2.4-5.3,5.7-5.3s2.3.2,3.3.9c.8.6,1.5,1.4,2,2.3l-1.8,1.2h0Z" style="fill: #14315c;"/>
  <path d="M224.8,268.9v20.4h-2.3v-20.4h2.3Z" style="fill: #14315c;"/>
  <path d="M233.1,268.9h4.2c2,0,5,.2,7.5,2.4,1.9,1.6,3.5,4.2,3.5,7.8s-2.1,6.6-3.6,7.8c-1.9,1.6-3.8,2.4-7.5,2.4h-4.1v-20.4h0ZM235.4,287.2h2c1.6,0,3.9-.2,5.8-1.8,1.5-1.3,2.8-3.3,2.8-6.2,0-4.9-3.4-8.1-8.6-8.1h-2v16.1Z" style="fill: #14315c;"/>
  <path d="M266.1,271.1h-8.3v6.1h8.1v2.1h-8.1v7.9h8.3v2.1h-10.6v-20.4h10.6v2.1Z" style="fill: #14315c;"/>
  <path d="M273.3,289.4v-21.3l15.9,16.7v-15.8h2.3v21.3l-15.9-16.7v15.8h-2.3Z" style="fill: #14315c;"/>
  <path d="M315.4,273.4c-.6-.6-1.6-1.4-2.7-1.9-1.1-.5-2.3-.8-3.5-.8-4.7,0-8.2,3.8-8.2,8.5s4.5,8.3,8.2,8.3,2.7-.4,3.8-1c1.2-.6,2-1.3,2.3-1.7v2.8c-2.3,1.6-4.6,2-6.1,2-6.1,0-10.5-4.6-10.5-10.5s4.6-10.6,10.7-10.6,3.6.1,6,2v2.8Z" style="fill: #14315c;"/>
  <path d="M333.2,271.1h-8.3v6.1h8.1v2.1h-8.1v7.9h8.3v2.1h-10.6v-20.4h10.6v2.1Z" style="fill: #14315c;"/>
  <path d="M349.6,273c-.3-.6-.7-1.2-1.2-1.5-.4-.3-1.1-.7-2.3-.7-2,0-3.4,1.2-3.4,3.1s.2,1.2.8,1.8c.6.6,1.4.9,2.1,1.3l2,.9c1.2.5,2.3,1.1,3.1,1.9,1,1,1.5,2.2,1.5,3.7,0,3.8-2.8,6.3-6.4,6.3s-3-.3-4.4-1.7c-1-1-1.6-2.4-1.9-3.6l2.2-.6c.1,1.1.6,2,1.2,2.6.9.9,1.9,1.1,2.9,1.1,2.8,0,4.1-2,4.1-4s-.3-1.7-1-2.4c-.6-.6-1.4-.9-2.4-1.4l-1.8-.9c-.8-.4-1.8-.8-2.7-1.7-.9-.9-1.4-1.8-1.4-3.3,0-3.2,2.4-5.3,5.7-5.3s2.3.2,3.3.9c.8.6,1.5,1.4,2,2.3l-1.8,1.2h0Z" style="fill: #14315c;"/>
  <path d="M419.9,273.4c-.6-.6-1.6-1.4-2.7-1.9-1.1-.5-2.3-.8-3.5-.8-4.7,0-8.2,3.8-8.2,8.5s4.5,8.3,8.2,8.3,2.7-.4,3.8-1c1.2-.6,2-1.3,2.4-1.7v2.8c-2.3,1.6-4.6,2-6.1,2-6.1,0-10.5-4.6-10.5-10.5s4.6-10.6,10.7-10.6,3.6.1,6,2v2.8Z" style="fill: #14315c;"/>
  <path d="M438.4,283.6h-8.7l-2.4,5.8h-2.5l9.4-21.4,9.1,21.4h-2.5l-2.4-5.8h0ZM437.5,281.5l-3.4-8.2-3.5,8.2h6.9Z" style="fill: #14315c;"/>
  <path d="M458,273c-.3-.6-.7-1.2-1.2-1.5-.4-.3-1.1-.7-2.3-.7-2,0-3.4,1.2-3.4,3.1s.2,1.2.8,1.8c.6.6,1.4.9,2.1,1.3l2,.9c1.2.5,2.3,1.1,3.1,1.9,1,1,1.5,2.2,1.5,3.7,0,3.8-2.8,6.3-6.4,6.3s-3-.3-4.4-1.7c-1-1-1.6-2.4-1.9-3.6l2.2-.6c.1,1.1.6,2,1.2,2.6.9.9,1.9,1.1,2.9,1.1,2.8,0,4.1-2,4.1-4s-.3-1.7-1-2.4c-.6-.6-1.4-.9-2.4-1.4l-1.8-.9c-.8-.4-1.8-.8-2.7-1.7-.9-.9-1.4-1.8-1.4-3.3,0-3.2,2.4-5.3,5.7-5.3s2.3.2,3.3.9c.8.6,1.5,1.4,2,2.3l-1.8,1.2h0Z" style="fill: #14315c;"/>
  <path d="M470.1,268.9v20.4h-2.3v-20.4h2.3Z" style="fill: #14315c;"/>
  <path d="M478.4,289.4v-21.3l15.9,16.7v-15.8h2.3v21.3l-15.9-16.7v15.8h-2.3Z" style="fill: #14315c;"/>
  <path d="M503.8,279.2c0-6.1,4.7-10.6,10.6-10.6s10.6,4.5,10.6,10.6-4.7,10.6-10.6,10.6-10.6-4.5-10.6-10.6ZM506.1,279.2c0,4.7,3.7,8.4,8.3,8.4s8.3-3.7,8.3-8.4-3.7-8.4-8.3-8.4-8.3,3.7-8.3,8.4Z" style="fill: #14315c;"/>
  <path d="M196.9,308.9c1.4,0,4,0,6,1.5,1.4,1.1,2.3,3,2.3,5.1,0,3.2-2.1,4.4-2.8,4.8,1.6.3,2.6,1,3.2,1.5,1.5,1.4,1.8,3.3,1.8,4.6s-.4,3.5-2.1,5c-1.8,1.6-4.1,2-6.2,2h-8.2v-24.5h6.1ZM195.6,319.1h1.4c.7,0,3.7,0,3.7-3.2s-1.7-3.1-3.7-3.1h-1.4v6.3ZM195.6,329.6h2.1c.9,0,2.2,0,3.3-.7,1.2-.7,1.5-1.9,1.5-2.8s-.3-2.1-1.8-2.8c-1-.5-2.2-.5-3.3-.5h-1.8v6.8Z" style="fill: #14315c;"/>
  <path d="M229.9,328.3h-9.9l-2.2,5.1h-5.2l10.5-24.5h3.7l10.2,24.5h-5.1l-2.2-5.1ZM228.5,324.4l-3.5-8.8-3.5,8.8h7Z" style="fill: #14315c;"/>
  <path d="M250.2,313.1v20.4h-4.8v-20.4h-5.5v-4.1h15.8v4.1h-5.5Z" style="fill: #14315c;"/>
  <path d="M267.2,308.9v15.4c0,1.9.6,3,1.2,3.6.7.8,2,1.7,3.9,1.7s3.2-.8,3.9-1.7c.6-.6,1.2-1.8,1.2-3.6v-15.4h4.8v15c0,2.3-.4,4.7-1.8,6.5-1.8,2.3-4.8,3.5-8,3.5s-6.2-1.2-8-3.5c-1.5-1.9-1.8-4.2-1.8-6.5v-15h4.8Z" style="fill: #14315c;"/>
  <path d="M294.6,308.9h3.5l6.5,15.6,6.8-15.6h3.5l4.1,24.5h-4.8l-2.2-15.1-6.6,15.1h-1.6l-6.3-15.1-2.5,15.1h-4.8l4.6-24.5Z" style="fill: #14315c;"/>
  <path d="M331.7,308.9v24.5h-4.8v-24.5h4.8Z" style="fill: #14315c;"/>
</svg>