<svg width="485" height="77" viewBox="0 0 485 77" fill="none" xmlns="http://www.w3.org/2000/svg">
<path d="M53.326 56.7997L62.6256 66.1091C56.1036 72.9565 47.4525 76.5945 36.5499 76.5945C16.2376 76.5945 0 61.2952 0 38.2911C0 15.287 16.1397 0 36.6601 0C47.5626 0 56.226 3.84626 62.7357 10.6936L53.4361 20.003C49.1656 15.728 43.2799 13.3639 36.6601 13.3639C23.4081 13.3639 13.2642 22.3549 13.2642 38.2789C13.2642 54.2029 23.4081 63.3163 36.6601 63.3163C43.182 63.3163 49.1656 61.0747 53.3382 56.7997H53.326Z" fill="white"/>
<path d="M93.4863 75.7371H80.2344V0.845215H93.4863V75.7371Z" fill="white"/>
<path d="M130.488 58.8331V75.7371H117.236V0.845215H146.187C162.119 0.845215 175.151 12.825 175.151 29.8392C175.151 46.8534 162.119 58.8331 146.187 58.8331H130.476H130.488ZM130.488 14.2214V45.5672H146.2C154.863 45.5672 161.911 39.5773 161.911 29.8392C161.911 20.101 154.851 14.2214 146.2 14.2214H130.488Z" fill="white"/>
<path d="M234.019 55.097L249.07 75.7493H232.746L220.131 58.9556H205.912V75.7493H192.66V0.857422H221.611C237.543 0.857422 250.55 12.8372 250.55 29.8514C250.55 49.9646 234.007 55.097 234.007 55.097H234.019ZM205.924 14.2213V45.5671H221.624C230.287 45.5671 237.335 39.5773 237.335 29.8391C237.335 20.101 230.287 14.2213 221.624 14.2213H205.924Z" fill="white"/>
<path d="M284.251 75.7371H271.012V0.845215H284.251V75.7371Z" fill="white"/>
<path d="M298.641 46.1061H317.888L334.236 0.845215H348.014L375.057 75.7371H361.486L355.393 58.5146H327.078L320.874 75.7371H307.304L313.508 58.5146H298.653V46.1061H298.641ZM341.174 18.9373L331.348 46.1061H350.902L341.174 18.9373Z" fill="white"/>
<path d="M435.393 0.845215H448.437V75.7371H430.694L403.125 20.8482V75.7371H390.094V0.845215H407.824L435.393 55.832V0.845215Z" fill="white"/>
<path d="M484.682 75.7371H471.418V0.845215H484.682V75.7371Z" fill="white"/>
</svg>
