<svg width="163" height="146" viewBox="0 0 163 146" fill="none" xmlns="http://www.w3.org/2000/svg">
<path d="M50.6477 137.77C50.4152 136.827 52.9237 134.402 53.5355 132.222C54.3676 129.233 54.7958 125.276 48.8 127.052C42.1679 129.024 44.8232 134.659 46.4017 137.182C48.0047 139.706 47.2215 141.506 46.1692 142.964C45.1047 144.422 48.384 145.953 50.2929 145.5C52.1895 145.046 53.9515 143.871 54.6979 142.388C55.4444 140.906 50.8802 138.726 50.6599 137.77H50.6477ZM50.0481 133.912C49.4853 134.769 48.7511 135.651 48.0047 134.439C48.0047 134.439 46.0835 130.948 48.0903 129.98C50.9781 128.596 51.1983 129.919 51.1983 130.617C51.1861 132.062 50.4764 133.275 50.0481 133.912ZM61.6971 67.3128C62.4068 67.57 63.1532 67.2761 63.5815 66.5166C64.6338 64.6792 63.9976 56.9744 63.6427 55.7985C63.2634 54.5246 62.8106 53.9121 62.3089 53.9489C61.7583 53.9979 61.6115 54.7451 61.5503 55.3698L60.5591 64.4097C60.241 65.9899 60.9018 67.0066 61.6971 67.3006V67.3128ZM76.0871 127.273C75.8668 126.317 78.363 123.904 78.9748 121.724C79.8191 118.735 80.2352 114.779 74.2394 116.555C67.6073 118.527 70.2503 124.162 71.8533 126.697C73.444 129.22 72.6731 131.009 71.6086 132.479C70.5562 133.936 73.8233 135.468 75.7322 135.014C77.6288 134.561 79.3909 133.385 80.1373 131.903C80.8837 130.421 76.3195 128.241 76.0871 127.297V127.273ZM75.4875 123.414C74.9246 124.272 74.1904 125.166 73.444 123.941C73.444 123.941 71.5229 120.438 73.5297 119.482C76.4052 118.098 76.6377 119.421 76.6377 120.119C76.6255 121.565 75.9157 122.777 75.4875 123.414ZM99.3239 117.645C99.1036 116.689 101.6 114.276 102.212 112.096C103.056 109.107 103.472 105.138 97.4762 106.915C90.8318 108.887 93.4994 114.521 95.0779 117.057C96.6686 119.58 95.8977 121.369 94.8331 122.826C93.7686 124.284 97.0479 125.815 98.9445 125.362C100.841 124.909 102.603 123.733 103.35 122.251C104.108 120.768 99.5319 118.588 99.2994 117.645H99.3239ZM98.7365 113.786C98.1736 114.644 97.4272 115.538 96.693 114.313C96.693 114.313 94.7719 110.822 96.7665 109.854C99.642 108.47 99.8745 109.793 99.8745 110.491C99.8745 111.925 99.1403 113.149 98.7365 113.786ZM162.011 64.4097C161.925 64.2505 161.656 63.9198 160.983 64.2505C160.163 64.6547 143.644 71.4775 122.744 80.1255C95.9099 91.2111 61.0853 105.616 35.9763 116.114C30.4333 113.039 25.0982 109.867 20.5341 105.102C21.8679 105.69 23.2873 106.18 24.7556 106.584C41.6295 111.165 61.844 102.566 70.1647 97.3847C81.6546 90.2311 92.7896 79.2926 95.9833 73.5477C98.1124 69.7259 97.9411 66.4799 97.0357 63.9688C98.9935 62.4254 102.04 59.4243 102.615 55.382C103.056 52.1605 102.713 49.9066 101.832 47.9223C104.108 44.5047 113.75 29.9526 115.488 24.4895C116.198 22.2968 116.198 19.259 115.133 16.405C115.182 16.3192 115.243 16.2457 115.292 16.16C116.418 13.9429 116.577 11.346 115.757 8.83493C114.754 5.76037 112.38 3.07779 109.235 1.48539C103.325 -1.51567 96.4116 0.17472 93.842 5.25815C93.1567 6.61782 92.8386 8.12448 92.8875 9.65563C92.8875 9.65563 92.8631 9.65563 92.8631 9.68013C92.8019 9.76587 85.9618 18.8916 72.5997 24.465C59.0296 30.1241 46.9401 30.3568 46.8177 30.3568C46.7076 30.3568 46.6097 30.3813 46.4996 30.3936C45.8144 29.1932 45.0068 28.0662 44.0523 27.0006C40.5283 23.0808 35.6949 20.7534 30.4211 20.4717C25.1594 20.19 20.0936 21.9661 16.1779 25.5061C12.2501 29.0339 9.93742 33.8724 9.65599 39.1395C9.43573 43.2308 10.4758 47.1016 12.4459 50.3721C8.06526 56.7785 0.83358 70.3506 4.88381 85.8949C9.79058 104.71 19.6898 112.537 30.0784 118.588C15.248 124.798 4.90828 129.208 3.58676 129.98C0.185057 131.94 -0.365577 134.132 0.185058 135.406C0.61333 136.411 1.7513 136.876 2.91376 136.521C8.72602 134.23 144.77 80.6155 150.961 77.2224C156.198 74.3561 162.745 65.8306 162.011 64.4097ZM98.3327 7.54876C99.642 4.95192 103.509 4.25372 106.935 5.99311C108.893 6.9853 110.349 8.58995 110.936 10.4028C110.997 10.5866 111.046 10.7826 111.095 11.003C110.214 10.3538 109.235 9.77812 108.085 9.33715C104.39 7.92849 100.866 7.92849 97.9167 9.16566C97.9411 8.58995 98.088 8.05098 98.3327 7.54876ZM96.2036 17.5931C97.0724 15.7068 99.7766 11.5788 106.262 14.0531C110.814 15.7925 111.364 20.6922 110.655 22.9338C109.468 26.6698 103.031 36.8979 98.761 43.3533C98.6876 43.2798 98.6386 43.194 98.5652 43.1206C97.2314 41.5037 95.9711 37.8411 95.8977 36.0772C95.8487 34.5828 95.0656 33.0762 93.9154 31.9982C94.0255 28.5562 94.5884 21.1577 96.2158 17.5931H96.2036ZM90.8441 36.2977C90.942 38.9803 92.5327 43.782 94.674 46.3544C97.2559 49.4779 98.1247 50.7641 97.5863 54.6961C97.3293 56.6315 95.7141 58.4321 94.3437 59.6203C94.05 59.2773 93.7808 58.9956 93.5728 58.7751C92.496 57.6237 91.1133 56.7662 89.6449 56.2027C89.6449 56.1782 89.6204 56.166 89.6204 56.1415C87.0141 52.9322 85.6191 48.302 85.3132 45.9869C85.044 43.9658 85.8149 39.0293 88.8863 36.1997C89.4247 35.6975 89.9386 35.4403 90.22 35.5383C90.5504 35.6608 90.8196 36.114 90.8563 36.31L90.8441 36.2977ZM74.5208 29.1319C81.3732 26.2779 86.6348 22.6031 90.3301 19.455C89.4002 23.3748 89.0453 27.9437 88.9107 30.5773C87.7116 30.8346 86.5369 31.4593 85.4478 32.476C83.5267 34.2521 82.2297 36.4692 81.4099 38.6863C80.7246 39.0538 80.0272 39.4213 79.2807 39.7888C72.2204 43.292 62.0887 45.0069 61.9908 45.0192L62.8229 50.0169C63.2389 49.9434 72.6364 48.3632 80.1985 44.9457C80.1985 45.5704 80.2229 46.1461 80.2841 46.6361C80.5411 48.6082 81.4466 52.2095 83.3065 55.7128C82.2297 55.97 81.2508 56.4355 80.4432 57.1092L77.9959 59.4365C74.9124 62.4866 69.7609 67.5823 61.122 73.6334C60.033 74.4051 58.9195 75.0788 57.806 75.6913C57.2309 71.9063 56.0072 64.1403 55.0528 59.657C53.9148 54.3164 50.3418 39.948 49.1671 35.2933C53.5232 34.9626 63.4591 33.7376 74.4963 29.1319H74.5208ZM16.0923 39.3478C16.2881 35.6975 17.9033 32.3412 20.632 29.8791C23.3974 27.3925 26.9826 26.1309 30.7147 26.3268C38.3624 26.7433 44.2603 33.2477 43.8565 40.8299C43.4527 48.4245 36.8941 54.2551 29.2341 53.8386C21.5742 53.4222 15.6885 46.9178 16.0923 39.3355V39.3478ZM11.418 89.8882H11.3935C10.794 88.259 10.2556 86.4951 9.76611 84.621C6.49901 72.1022 11.9075 60.6737 15.7864 54.5491C19.0657 57.6604 23.4341 59.6815 28.2919 59.951C36.6983 60.4042 44.1625 55.4923 47.3928 48.2285C48.2494 51.6338 49.0937 55.0146 49.6933 57.4399C48.6287 56.019 47.1236 54.6471 46.4629 55.8353C45.2515 58.0279 44.5295 59.9633 41.446 60.196C34.7772 60.6982 31.5713 61.2617 34.924 66.6268C38.3502 72.1145 41.3848 69.8361 42.327 67.2761C43.0612 65.2672 43.5751 62.6703 44.4684 62.3396C45.3371 62.0089 50.1215 63.9933 50.8802 62.8541C51.6633 67.3128 52.838 75.3483 53.2051 77.8594C51.6389 78.4596 50.2317 78.9373 48.7511 79.3293C47.503 78.7413 43.3181 76.7202 39.0354 74.0989C35.3645 71.8573 31.6569 69.1624 29.4421 67.57L27.8025 66.3941C26.8725 65.7816 26.1995 65.9899 25.8936 66.3941C25.7468 66.5901 25.6611 66.8473 25.6611 67.1536C25.6611 67.7538 25.9915 68.5132 26.7869 69.2482L27.4231 69.8484C29.748 72.041 36.0253 77.9819 40.6996 80.6767C35.805 81.0932 32.4033 80.6767 32.3299 80.6645L31.6569 85.6867C32.3789 85.7847 49.5709 87.9895 64.071 77.8227C73.0525 71.5143 78.3997 66.2349 81.5934 63.0746L83.7348 61.0289C84.9095 60.049 88.25 60.49 89.9263 62.2784C92.4103 64.9119 93.634 67.423 91.5783 71.1223C89.1432 75.5075 79.1584 85.8704 67.5216 93.1219C58.5891 98.6831 40.1856 105.567 26.1016 101.733C19.5552 99.9448 14.6239 95.976 11.4425 89.9249L11.418 89.8882Z" fill="white"/>
</svg>
