<svg width="70" height="16" viewBox="0 0 70 16" fill="none" xmlns="http://www.w3.org/2000/svg">
<g clip-path="url(#clip0_2153_208)">
<path d="M2.75503 0.245605H9.3657C12.3918 0.245605 15.3518 0.965968 14.7155 4.54439C14.4751 5.90092 13.5536 7.23873 12.1089 7.67142L12.0877 7.79538C13.6809 8.39178 14.5388 9.62669 14.2112 11.4767C13.6455 14.6645 10.4663 15.7544 7.73248 15.7544H0L2.75503 0.245605ZM7.47795 6.21198C8.30752 6.21198 9.25493 6.13012 9.44347 5.06128C9.64851 3.91057 8.57619 3.99243 7.74662 3.99243H7.35304L6.95946 6.21432H7.47795V6.21198ZM5.9225 12.0521H6.56353C7.4968 12.0521 8.84722 12.031 9.07346 10.7563C9.30442 9.46063 7.85031 9.48168 6.93825 9.48168H6.3797L5.9225 12.0521Z" fill="white"/>
<path d="M23.3789 10.7774H21.0504L22.9217 0.245605H17.2443L14.4893 15.7521H26.1386C24.5973 14.5991 23.5981 12.9128 23.3813 10.7751L23.3789 10.7774Z" fill="white"/>
<path d="M42.4214 8.04093C41.5376 13.018 37.1328 16 32.3652 16C27.5975 16 24.2532 13.018 25.137 8.04093C26.0043 3.16679 30.4633 0 35.2097 0C39.9562 0 43.2887 3.16679 42.4237 8.04093H42.4214ZM30.8451 8.12279C30.5316 9.89095 31.5167 11.1048 33.2371 11.1048C34.9576 11.1048 36.374 9.89095 36.6898 8.12279C36.982 6.47858 36.1077 5.09867 34.3048 5.09867C32.5018 5.09867 31.1373 6.47625 30.8451 8.12279Z" fill="white"/>
<path d="M54.7472 0.245605H60.2808L58.961 6.97211H59.0859C59.324 6.3336 59.7741 5.7793 60.1842 5.22499L63.8041 0.247944H70L63.7688 7.79538L67.7635 15.7544H61.174L59.3122 11.0651C59.0859 10.4687 58.6923 9.89332 58.6806 9.25481H58.5557L57.5258 15.7544H51.9921L54.7472 0.245605Z" fill="white"/>
<path d="M45.3885 8.00106C45.6878 6.31476 47.314 4.97695 49.0132 4.97695C50.2976 4.97695 51.311 5.69731 52.0723 6.53929L52.956 0.636062C51.8272 0.224426 50.5404 -0.00244141 49.2559 -0.00244141C47.0218 -0.00244141 44.8748 0.862929 43.1638 2.27091C44.097 3.81688 44.4694 5.77215 44.064 8.04784C43.6493 10.3867 42.5722 12.3466 41.0828 13.8739C42.2611 15.1953 44.0358 15.9999 46.1828 15.9999C47.1985 15.9999 49.3455 15.8151 50.333 15.3824L51.5302 9.58212C50.4602 10.4662 49.3267 11.0228 48.021 11.0228C46.3218 11.0228 45.0845 9.70608 45.3885 7.99873V8.00106Z" fill="white"/>
</g>
<defs>
<clipPath id="clip0_2153_208">
<rect width="70" height="16" fill="white"/>
</clipPath>
</defs>
</svg>
