<?xml version="1.0" encoding="UTF-8"?>
<svg id="Layer_1" xmlns="http://www.w3.org/2000/svg" version="1.1" viewBox="0 0 227 60">
  <!-- Generator: Adobe Illustrator 30.1.0, SVG Export Plug-In . SVG Version: 2.1.1 Build 136)  -->
  <path d="M83.3,48.3c.6,0,1.9,0,2.8.7.7.5,1.1,1.4,1.1,2.4,0,1.5-1,2.1-1.3,2.3.8.1,1.2.4,1.5.7.7.7.8,1.5.8,2.1s-.2,1.6-1,2.3c-.9.8-1.9.9-2.9.9h-3.8v-11.5h2.8ZM82.7,53h.6c.3,0,1.7,0,1.7-1.5s-.8-1.4-1.7-1.4h-.7v2.9h0ZM82.7,57.9h1c.4,0,1,0,1.5-.3.6-.3.7-.9.7-1.3s-.1-1-.8-1.3c-.5-.2-1-.2-1.5-.2h-.8v3.2Z" style="fill: #fff;"/>
  <path d="M98.7,57.3h-4.6l-1,2.4h-2.4l4.9-11.5h1.7l4.8,11.5h-2.4l-1-2.4h0ZM98.1,55.5l-1.6-4.1-1.6,4.1h3.3Z" style="fill: #fff;"/>
  <path d="M108.2,50.2v9.5h-2.2v-9.5h-2.6v-1.9h7.4v1.9h-2.6Z" style="fill: #fff;"/>
  <path d="M116.2,48.3v7.2c0,.9.3,1.4.5,1.7.3.4.9.8,1.8.8s1.5-.4,1.8-.8c.3-.3.6-.8.6-1.7v-7.2h2.2v7c0,1.1-.2,2.2-.9,3.1-.8,1.1-2.3,1.7-3.7,1.7s-2.9-.6-3.7-1.7c-.7-.9-.9-2-.9-3.1v-7h2.2Z" style="fill: #fff;"/>
  <path d="M129,48.3h1.6l3,7.3,3.2-7.3h1.6l1.9,11.5h-2.3l-1-7.1-3.1,7.1h-.8l-2.9-7.1-1.2,7.1h-2.3l2.1-11.5h0Z" style="fill: #fff;"/>
  <path d="M146.4,48.3v11.5h-2.2v-11.5h2.2Z" style="fill: #fff;"/>
  <path d="M25,26.6l4.3,4.3c-3.1,3.2-7.1,4.9-12.2,4.9-9.5,0-17.1-7.1-17.1-17.9S7.6,0,17.2,0s9.1,1.8,12.2,5l-4.3,4.3c-2-2-4.7-3.1-7.9-3.1-6.2,0-11,4.2-11,11.7s4.7,11.7,11,11.7,5.9-1,7.8-3h0Z" style="fill: #fff;"/>
  <path d="M43.8,35.4h-6.2V.4h6.2v35Z" style="fill: #fff;"/>
  <path d="M61.1,27.5v7.9h-6.2V.4h13.6c7.5,0,13.6,5.6,13.6,13.6s-6.1,13.6-13.6,13.6h-7.4ZM61.1,6.6v14.7h7.3c4.1,0,7.4-2.8,7.4-7.3s-3.3-7.3-7.4-7.3h-7.3Z" style="fill: #fff;"/>
  <path d="M109.5,25.8l7,9.7h-7.6l-5.9-7.9h-6.7v7.9h-6.2V.4h13.6c7.5,0,13.5,5.6,13.5,13.6s-7.7,11.8-7.7,11.8ZM96.4,6.6v14.7h7.3c4.1,0,7.4-2.8,7.4-7.3s-3.3-7.3-7.4-7.3h-7.3Z" style="fill: #fff;"/>
  <path d="M133,35.4h-6.2V.4h6.2v35Z" style="fill: #fff;"/>
  <path d="M139.7,21.6h9L156.4.4h6.5l12.7,35h-6.4l-2.8-8h-13.2l-2.9,8h-6.4l2.9-8h-6.9v-5.8h0ZM159.6,8.9l-4.6,12.7h9.1l-4.6-12.7Z" style="fill: #fff;"/>
  <path d="M203.7.4h6.1v35h-8.3l-12.9-25.7v25.7h-6.1V.4h8.3l12.9,25.7V.4Z" style="fill: #fff;"/>
  <path d="M226.8,35.4h-6.2V.4h6.2v35Z" style="fill: #fff;"/>
</svg>