<svg width="38" height="56" viewBox="0 0 38 56" fill="none" xmlns="http://www.w3.org/2000/svg">
<g clip-path="url(#clip0_2153_177)">
<path d="M34.3806 36.2592L32.0368 36.9957V36.029L34.3806 35.2925V36.2592Z" fill="white"/>
<path d="M34.3806 34.9701L32.0368 35.7067V34.7476L34.3806 34.0034V34.9701Z" fill="white"/>
<path d="M34.3806 33.6816L32.0368 34.4258V33.4591L34.3806 32.7148V33.6816Z" fill="white"/>
<path d="M34.3806 32.3926L32.0368 33.1368V32.1701L34.3806 31.4336V32.3926Z" fill="white"/>
<path d="M34.3806 31.1112L32.0368 31.8478V30.8811L34.3806 30.1445V31.1112Z" fill="white"/>
<path d="M34.3806 29.8222L32.0368 30.5587V29.5997L34.3806 28.8555V29.8222Z" fill="white"/>
<path d="M34.3806 28.5331L32.0368 29.2773V28.3106L34.3806 27.5664V28.5331Z" fill="white"/>
<path d="M34.3806 27.2442L32.0368 27.9884V27.0217L34.3806 26.2852V27.2442Z" fill="white"/>
<path d="M34.3806 25.9628L32.0368 26.6993V25.7326L34.3806 24.9961V25.9628Z" fill="white"/>
<path d="M22.6924 37.3715L20.3486 38.108V37.1413L22.6924 36.4048V37.3715Z" fill="white"/>
<path d="M29.6008 36.7964C29.3319 37.5253 28.8477 38.0009 28.1638 38.2158L20.3486 40.6786V39.7119L29.6008 36.7964Z" fill="white"/>
<path d="M22.6924 36.0829L20.3486 36.8195V35.8527L22.6924 35.1162V36.0829Z" fill="white"/>
<path d="M29.7314 36.1136C29.7314 36.221 29.7238 36.3284 29.7007 36.4435L20.3486 39.3896V38.4229L29.7314 35.4614V36.1059V36.1136Z" fill="white"/>
<path d="M22.6924 32.2235L20.3486 32.9601V31.9934L22.6924 31.2568V32.2235Z" fill="white"/>
<path d="M29.6008 32.6148L20.3486 35.5303V34.5636L28.1638 32.1008C28.8477 31.886 29.3319 32.0548 29.6008 32.6148Z" fill="white"/>
<path d="M29.7314 35.1465L27.38 35.8907V34.924L29.7314 34.1875V35.1465Z" fill="white"/>
<path d="M29.6008 30.3594C29.3319 31.0882 28.8477 31.5639 28.1638 31.7787L20.3486 34.2416V33.2748L29.6008 30.3594Z" fill="white"/>
<path d="M29.7314 33.8653L27.3877 34.6018V33.6351L29.7007 32.9062C29.7238 33.006 29.7314 33.1134 29.7314 33.2208V33.8653Z" fill="white"/>
<path d="M29.7314 28.7175L20.3486 31.679V30.7123L29.7007 27.7661C29.7238 27.8659 29.7314 27.9733 29.7314 28.0807V28.7251V28.7175Z" fill="white"/>
<path d="M29.6008 27.4669L20.3486 30.3824V29.4157L28.1638 26.9529C28.8477 26.738 29.3319 26.9068 29.6008 27.4669Z" fill="white"/>
<path d="M29.7314 29.6762C29.7314 29.7836 29.7238 29.891 29.7007 30.0061L27.3877 30.735V29.7683L29.7314 29.0317V29.6762Z" fill="white"/>
<path d="M9.88231 30.321L8.11487 29.7532V28.7712L9.88231 29.3389V30.3133V30.321ZM9.78241 27.6817L2.89707 25.4721C3.10455 24.889 3.46572 24.6742 3.98059 24.843L8.69889 26.3544C9.22144 26.5232 9.58261 26.9605 9.78241 27.6817ZM9.88231 31.6253L8.11487 31.0575V30.0831L9.88231 30.6509V31.6253ZM9.88231 29.0167L2.80486 26.7457V26.0936C2.80486 25.9861 2.81254 25.8787 2.82791 25.7713L9.85157 28.027C9.86694 28.1421 9.87462 28.2495 9.87462 28.3646V29.0167H9.88231ZM9.88231 32.9296L8.11487 32.3618V31.3874L9.88231 31.9552V32.9296ZM9.88231 34.2338L8.11487 33.6661V32.6917L9.88231 33.2595V34.2415V34.2338ZM9.88231 35.5381L8.11487 34.9704V33.996L9.88231 34.5638V35.5381ZM4.5723 28.6254L2.80486 28.0577V27.0833L4.5723 27.651V28.6254ZM4.5723 29.9297L2.80486 29.3619V28.3876L4.5723 28.9553V29.9297ZM4.5723 31.234L2.80486 30.6662V29.6919L4.5723 30.2596V31.234ZM9.88231 36.5202C9.88231 36.6276 9.87462 36.735 9.85925 36.8424L2.83559 34.5868C2.82022 34.4717 2.81254 34.3643 2.81254 34.2569V33.6047L9.88999 35.8757V36.5279L9.88231 36.5202ZM4.5723 32.5383L2.80486 31.9705V30.9961L4.5723 31.5639V32.5383ZM9.78241 37.1416C9.57493 37.7324 9.21375 37.9396 8.69889 37.7708L3.98059 36.2593C3.46572 36.0905 3.09687 35.6532 2.89707 34.932L9.78241 37.1416ZM4.5723 33.8349L2.80486 33.2671V32.2928L4.5723 32.8605V33.8349ZM17.9587 32.5843C17.9587 32.6917 17.9511 32.7991 17.9357 32.9065L16.1913 32.3465V31.3721L17.9587 31.9398V32.592V32.5843ZM17.8588 30.275L10.8813 28.0346V27.0603L16.7753 28.9476C17.2902 29.1164 17.6591 29.5538 17.8588 30.275ZM17.9587 31.6099L10.8813 29.3389V28.3646L17.928 30.6279C17.9434 30.743 17.9511 30.8504 17.9511 30.9578V31.6099H17.9587ZM17.9587 36.8271L16.1913 36.2593V35.285L17.9357 35.845C17.9511 35.9601 17.9587 36.0675 17.9587 36.1826V36.8348V36.8271ZM17.8588 33.2058C17.6514 33.7889 17.2902 34.0037 16.7753 33.8349L10.8813 31.9475V30.9731L17.8588 33.2134V33.2058ZM17.9587 38.1314L16.1913 37.5636V36.5892L17.9587 37.157V38.1314ZM17.8588 35.4921L10.8813 33.2518V32.2774L16.7753 34.1648C17.2902 34.3336 17.6591 34.7709 17.8588 35.4921ZM17.9587 39.4357L16.1913 38.8679V37.8935L17.9587 38.4613V39.4357ZM12.6487 31.211L10.8813 30.6432V29.6688L12.6487 30.2366V31.211ZM17.9587 40.7399L16.1913 40.1722V39.1901L17.9587 39.7579V40.7323V40.7399ZM12.6487 35.1238L10.8813 34.5561V33.5817L12.6487 34.1495V35.1238ZM12.6487 36.4281L10.8813 35.8604V34.886L12.6487 35.4537V36.4281ZM12.6487 37.7324L10.8813 37.1647V36.1903L12.6487 36.758V37.7401V37.7324ZM12.6487 39.0367L10.8813 38.469V37.4946L12.6487 38.0623V39.0367Z" fill="white"/>
<path d="M27.6873 47.3688C27.5567 47.4072 27.4491 47.5376 27.3723 47.7448C27.2878 47.9519 27.2493 48.2511 27.2493 48.6347C27.2493 49.0184 27.2954 49.2792 27.3723 49.4403C27.4568 49.6015 27.5644 49.6628 27.6873 49.6168C27.8103 49.5784 27.9179 49.448 27.9947 49.2332C28.0793 49.0184 28.1177 48.7191 28.1177 48.3355C28.1177 47.9519 28.0793 47.6911 27.9947 47.5299C27.9102 47.3765 27.8103 47.3151 27.6797 47.3611L27.6873 47.3688Z" fill="white"/>
<path d="M29.4317 46.8778C29.3933 46.8625 29.3011 46.8778 29.1705 46.9239L29.0168 46.9776V47.9136L29.1935 47.8522C29.3088 47.8138 29.3933 47.7755 29.4317 47.7294C29.4702 47.6911 29.5086 47.622 29.5393 47.5453C29.5701 47.4609 29.5778 47.3689 29.5778 47.2614C29.5778 47.154 29.5624 47.062 29.5316 47.0006C29.5009 46.9315 29.4702 46.8932 29.4241 46.8855L29.4317 46.8778Z" fill="white"/>
<path d="M11.6959 48.0976C11.6267 47.9979 11.5422 47.9135 11.4499 47.8598C11.3808 47.8214 11.2348 47.76 11.0273 47.691L10.7891 47.6143V49.7855L11.181 49.9083C11.35 49.962 11.4653 49.985 11.5422 49.9773C11.619 49.9696 11.6805 49.939 11.7266 49.8853C11.7727 49.8315 11.8111 49.7395 11.8419 49.6091C11.8726 49.4786 11.888 49.2945 11.888 49.0566C11.888 48.8188 11.8726 48.6193 11.8419 48.4659C11.8111 48.3124 11.7573 48.1897 11.6959 48.0899V48.0976Z" fill="white"/>
<path d="M3.17372 45.8804C3.25825 45.8957 3.33509 45.8804 3.3812 45.8266C3.43499 45.7806 3.45804 45.7039 3.45804 45.5888C3.45804 45.4891 3.43499 45.4047 3.39657 45.3356C3.35814 45.2589 3.30435 45.2052 3.25056 45.1745C3.18909 45.1438 3.02771 45.0824 2.75107 44.9904L2.45137 44.8906V45.6502L2.79717 45.7576C3.00466 45.8266 3.12761 45.865 3.1814 45.8727L3.17372 45.8804Z" fill="white"/>
<path d="M19.0038 0L0 6.15317V49.7318L19.0115 55.9923L38.0077 49.586V6.17619L19.0038 0ZM3.91911 47.76C3.81153 47.8904 3.68089 47.9518 3.53488 47.9364C3.4273 47.9364 3.18908 47.8674 2.81254 47.7446L1.94419 47.4608V44.177L2.97391 44.5146C3.25056 44.6067 3.45035 44.6987 3.56562 44.7908C3.68089 44.8829 3.7731 45.0056 3.84995 45.1667C3.92679 45.3279 3.96522 45.4967 3.96522 45.6654C3.96522 45.8266 3.93448 45.957 3.86532 46.0644C3.79616 46.1718 3.71163 46.2332 3.60404 46.2639C3.75774 46.3713 3.873 46.5017 3.95753 46.6705C4.04206 46.8393 4.08817 47.0158 4.08817 47.2152C4.08817 47.4531 4.03438 47.6372 3.92679 47.7676L3.91911 47.76ZM6.56259 47.4071C6.56259 47.8444 6.53953 48.1589 6.49343 48.3431C6.44732 48.5272 6.34742 48.65 6.19373 48.719C6.04004 48.7881 5.83256 48.7804 5.57128 48.696C5.30233 48.6116 5.09484 48.4888 4.94115 48.3431C4.78746 48.1973 4.67988 48.0208 4.6184 47.8137C4.54924 47.6065 4.5185 47.2613 4.5185 46.7703V45.021L5.03337 45.1898V46.9621C5.03337 47.2383 5.03337 47.4224 5.05642 47.5068C5.07947 47.6602 5.13327 47.7907 5.2178 47.8981C5.30233 48.0055 5.41759 48.0822 5.5636 48.1282C5.68655 48.1666 5.77877 48.1743 5.85561 48.1436C5.93246 48.1129 5.97856 48.0515 6.0093 47.9595C6.04004 47.8674 6.05541 47.6602 6.05541 47.338V45.5273L6.57027 45.6961V47.4224L6.56259 47.4071ZM7.6 49.3021L7.08514 49.1333V45.8496L7.6 46.0184V49.3021ZM9.90536 50.054L8.09949 49.4709V46.2178L8.61436 46.3866V49.0873L9.90536 49.5093V50.0617V50.054ZM12.3337 49.9696C12.2722 50.1614 12.1953 50.2995 12.1031 50.3916C12.0109 50.4836 11.8957 50.5373 11.765 50.5604C11.6344 50.5757 11.4576 50.5604 11.2502 50.4836L10.2819 50.1691V46.8853L11.2271 47.1922C11.4653 47.2689 11.6497 47.3533 11.765 47.4531C11.888 47.5452 11.9956 47.6756 12.1031 47.8444C12.203 48.0132 12.2876 48.205 12.3414 48.4428C12.4028 48.673 12.4259 48.9492 12.4259 49.2637C12.4259 49.5476 12.3951 49.7855 12.3337 49.9696ZM13.3634 51.1741L12.8485 51.0054V47.7216L13.3634 47.8904V51.1741ZM15.907 52.0028L15.3844 51.834L14.347 49.3558V51.4964L13.8629 51.3429V48.0592L14.3624 48.2203L15.4152 50.7522V48.5579L15.8993 48.7113V51.9951L15.907 52.0028ZM18.7503 52.4708C18.635 52.5705 18.4813 52.6396 18.2738 52.6702C18.0663 52.7009 17.8588 52.6856 17.6514 52.6165C17.3978 52.5321 17.1749 52.394 16.9828 52.2022C16.7907 52.0104 16.637 51.7649 16.5217 51.4657C16.4065 51.1665 16.3527 50.8442 16.3527 50.4913C16.3527 50.1384 16.4065 49.8392 16.5217 49.6243C16.637 49.4018 16.783 49.2637 16.9674 49.1947C17.1519 49.1256 17.367 49.1333 17.6206 49.2177C17.928 49.3175 18.1739 49.4786 18.3583 49.7011C18.5428 49.9236 18.658 50.1998 18.7118 50.5373L18.2047 50.499C18.1662 50.3148 18.0971 50.1614 17.9972 50.0386C17.8973 49.9159 17.7743 49.8315 17.6283 49.7855C17.4055 49.7164 17.2287 49.7471 17.0904 49.8775C16.9521 50.0156 16.8829 50.2611 16.8829 50.6294C16.8829 51.0207 16.9598 51.3506 17.1058 51.6038C17.2287 51.8186 17.4055 51.9644 17.6206 52.0334C17.7205 52.0641 17.8281 52.0718 17.9357 52.0641C18.0433 52.0488 18.1432 52.0104 18.2277 51.9567V51.5424L17.636 51.3506V50.7982L18.7503 51.1588V52.4631V52.4708ZM20.9019 51.4734C20.8635 51.6959 20.8174 51.88 20.7559 52.0181C20.7021 52.1562 20.633 52.2713 20.5484 52.3633C20.4639 52.4554 20.364 52.5168 20.2334 52.5552L19.634 52.747V49.4632L20.218 49.2714C20.364 49.2254 20.4793 49.2177 20.5484 49.2484C20.6253 49.2791 20.6944 49.3481 20.7559 49.4632C20.8174 49.5783 20.8712 49.7318 20.9019 49.9312C20.9403 50.1307 20.9557 50.3916 20.9557 50.7061C20.9557 50.99 20.9327 51.2432 20.9019 51.4657V51.4734ZM22.4235 51.8493L21.2247 52.2406V48.9569L22.3927 48.5732V49.1256L21.5397 49.4018V50.123L22.3312 49.8622V50.4146L21.5397 50.6754V51.5731L22.4235 51.2892V51.8416V51.8493ZM23.4455 51.5117L23.0997 51.6268L22.531 48.5272L22.8692 48.4198L23.2688 50.7215L23.653 48.1666L23.9911 48.0592L23.4301 51.5194L23.4455 51.5117ZM25.3666 50.8903L24.1678 51.2816V47.9978L25.3359 47.6219V48.1743L24.4829 48.4505V49.1717L25.2744 48.9108V49.4632L24.4829 49.7241V50.6217L25.3666 50.3379V50.8903ZM26.7498 50.4376L25.6433 50.7982V47.5452L25.9583 47.4454V50.1461L26.7498 49.8852V50.4376ZM28.2176 49.609C28.087 49.9236 27.9025 50.123 27.6797 50.1921C27.4491 50.2688 27.2724 50.1921 27.1418 49.9619C26.9881 49.7011 26.9189 49.3021 26.9189 48.765C26.9189 48.3738 26.9496 48.0438 27.0188 47.7676C27.088 47.4914 27.1725 47.2766 27.2801 47.1155C27.3877 46.9544 27.526 46.847 27.6797 46.8009C27.9025 46.7242 28.087 46.8163 28.233 47.0618C28.3713 47.3073 28.4481 47.7063 28.4481 48.251C28.4481 48.7957 28.3713 49.2561 28.2253 49.609H28.2176ZM29.8313 47.7676C29.7776 47.9441 29.7161 48.0822 29.6315 48.1666C29.5547 48.2587 29.4164 48.3354 29.2243 48.3968L29.0168 48.4658V49.7011L28.7017 49.8008V46.5171L29.2166 46.3483C29.4087 46.2869 29.5316 46.2639 29.5931 46.2716C29.6853 46.2946 29.7622 46.3713 29.8237 46.5171C29.8851 46.6628 29.9159 46.87 29.9159 47.1308C29.9159 47.3687 29.8928 47.5758 29.839 47.7523L29.8313 47.7676ZM31.6833 48.8341L31.3913 48.9338V46.3483L31.0762 49.0412L30.7689 49.141L30.4538 46.6552V49.2407L30.1541 49.3405V46.0567L30.6305 45.9033L30.9149 48.0515L31.1992 45.7192L31.6756 45.5657V48.8494L31.6833 48.8341ZM33.2048 48.3431L32.0061 48.7344V45.4506L33.1741 45.0747V45.6271L32.3211 45.9033V46.6245L33.1126 46.3636V46.916L32.3211 47.1769V48.0669L33.2048 47.783V48.3354V48.3431ZM34.7341 47.8444L34.4113 47.9518L33.7735 46.0184V48.1589L33.4738 48.251V44.9673L33.7812 44.8675L34.4267 46.847V44.6527L34.7187 44.553V47.8367L34.7341 47.8444ZM36.2018 44.6374L35.7331 44.7908V47.5145L35.418 47.6142V44.8829L34.9492 45.0363V44.4839L36.2018 44.0773V44.6297V44.6374ZM36.3017 43.2794L18.9962 48.8878L1.6906 43.2794V18.0452L18.9962 23.6537L36.3017 18.0452V43.2794ZM36.3017 15.3906L18.9962 20.999L1.69828 15.3906V12.736L19.0038 18.3444L36.3094 12.736V15.3906H36.3017ZM36.3017 10.0737L18.9962 15.6822L1.69828 10.0737V7.4191L19.0038 13.0275L36.3094 7.4191V10.0737H36.3017Z" fill="white"/>
<path d="M20.51 49.9311C20.4716 49.8621 20.4178 49.8237 20.3563 49.8237C20.3102 49.8237 20.2257 49.8391 20.095 49.8774L19.949 49.9235V52.0947L20.1873 52.018C20.2872 51.9873 20.364 51.9413 20.4101 51.8952C20.4562 51.8492 20.4946 51.7878 20.5254 51.7111C20.5561 51.6344 20.5792 51.5193 20.6022 51.3735C20.6253 51.2278 20.633 51.0359 20.633 50.7981C20.633 50.5603 20.6253 50.3685 20.6022 50.2304C20.5792 50.0999 20.5484 49.9925 20.51 49.9311Z" fill="white"/>
<path d="M3.31204 46.5171C3.24288 46.471 3.09687 46.4096 2.87402 46.3329L2.45137 46.1948V47.0695L2.9355 47.2229C3.14298 47.292 3.2813 47.3227 3.34278 47.3227C3.40425 47.3227 3.45036 47.292 3.49647 47.2383C3.53489 47.1845 3.55794 47.1078 3.55794 47.0004C3.55794 46.893 3.53489 46.8009 3.49647 46.7165C3.45036 46.6321 3.39657 46.5631 3.31972 46.5171H3.31204Z" fill="white"/>
</g>
<defs>
<clipPath id="clip0_2153_177">
<rect width="38" height="56" fill="white"/>
</clipPath>
</defs>
</svg>
