<svg width="227" height="60" viewBox="0 0 227 60" fill="none" xmlns="http://www.w3.org/2000/svg">
<path d="M83.2654 48.2804C83.8985 48.2804 85.1345 48.2804 86.0616 49.0039C86.7323 49.5164 87.1242 50.4133 87.1242 51.3705C87.1242 52.8477 86.1445 53.4506 85.8354 53.6239C86.5891 53.7445 87.0413 54.0686 87.3277 54.3475C88.0136 55.0032 88.1492 55.8925 88.1492 56.4954C88.1492 57.1662 87.9608 58.1083 87.1695 58.8168C86.3103 59.5704 85.2627 59.7438 84.2678 59.7438H80.4241V48.2879H83.2579L83.2654 48.2804ZM82.67 53.0361H83.3031C83.6498 53.0361 85.0366 52.9984 85.0366 51.5438C85.0366 50.4962 84.2301 50.1043 83.3182 50.1043H82.6625V53.0436L82.67 53.0361ZM82.67 57.9123H83.6347C84.0492 57.9123 84.6673 57.8973 85.1647 57.6033C85.7149 57.2793 85.8656 56.7291 85.8656 56.2844C85.8656 55.9226 85.745 55.3046 85.0215 54.9806C84.5391 54.7545 83.9739 54.7545 83.4915 54.7545H82.67V57.9123Z" fill="#14315C"/>
<path d="M98.7308 57.332H94.1108L93.1009 59.7362H90.6816L95.6106 48.2804H97.3591L102.152 59.7362H99.7483L98.7383 57.332H98.7308ZM98.0751 55.5081L96.4472 51.3855L94.8117 55.5081H98.0751Z" fill="#14315C"/>
<path d="M108.227 50.2023V59.7362H105.996V50.2023H103.419V48.2804H110.805V50.2023H108.227Z" fill="#14315C"/>
<path d="M116.164 48.2804V55.478C116.164 56.3522 116.458 56.8874 116.714 57.1813C117.038 57.5732 117.641 57.9726 118.538 57.9726C119.435 57.9726 120.03 57.5807 120.362 57.1813C120.618 56.8874 120.912 56.3598 120.912 55.478V48.2804H123.143V55.2896C123.143 56.3749 122.97 57.4677 122.284 58.3495C121.462 59.4348 120.015 60 118.538 60C117.061 60 115.621 59.4348 114.792 58.3495C114.106 57.4752 113.933 56.3749 113.933 55.2896V48.2804H116.164Z" fill="#14315C"/>
<path d="M129.014 48.2804H130.627L133.664 55.5609L136.845 48.2804H138.458L140.379 59.7362H138.111L137.078 52.6743L134.003 59.7362H133.25L130.31 52.6743L129.142 59.7362H126.874L129.007 48.2804H129.014Z" fill="#14315C"/>
<path d="M146.355 48.2804V59.7362H144.125V48.2804H146.355Z" fill="#14315C"/>
<path d="M24.9541 26.5519L29.3028 30.9006C26.2505 34.1037 22.2032 35.7995 17.1009 35.7995C7.59703 35.807 0 28.6547 0 17.8997C0 7.14482 7.55181 0 17.1536 0C22.256 0 26.3032 1.80128 29.3556 4.99686L25.0069 9.34555C23.0097 7.34832 20.2587 6.24795 17.1536 6.24795C10.9509 6.24795 6.20273 10.4459 6.20273 17.8997C6.20273 25.3536 10.9509 29.6043 17.1536 29.6043C20.206 29.6043 23.0097 28.5567 24.9541 26.5595V26.5519Z" fill="#14315C"/>
<path d="M43.7512 35.4078H37.5485V0.399658H43.7512V35.4078Z" fill="#14315C"/>
<path d="M61.0627 27.5018V35.4003H54.8675V0.399658H68.4185C75.8724 0.399658 81.9696 5.99945 81.9696 13.9507C81.9696 21.902 75.8724 27.5018 68.4185 27.5018H61.0702H61.0627ZM61.0627 6.64761V21.299H68.411C72.4658 21.299 75.7669 18.4954 75.7669 13.9507C75.7669 9.40606 72.4658 6.64761 68.411 6.64761H61.0627Z" fill="#14315C"/>
<path d="M109.509 25.7532L116.548 35.4078H108.913L103.012 27.5545H96.357V35.4078H90.1542V0.399658H103.705C111.159 0.399658 117.249 5.99945 117.249 13.9507C117.249 23.349 109.509 25.7532 109.509 25.7532ZM96.357 6.64761V21.299H103.705C107.76 21.299 111.061 18.4954 111.061 13.9507C111.061 9.40606 107.768 6.64761 103.705 6.64761H96.357Z" fill="#14315C"/>
<path d="M133.008 35.4078H126.813V0.399658H133.008V35.4078Z" fill="#14315C"/>
<path d="M139.739 21.5553H148.745L156.395 0.399658H162.847L175.501 35.4078H169.147L166.298 27.3586H153.049L150.147 35.4078H143.794L146.695 27.3586H139.747V21.5553H139.739ZM159.644 8.85588L155.046 21.5553H164.196L159.644 8.85588Z" fill="#14315C"/>
<path d="M203.733 0.399658H209.838V35.4078H201.532L188.629 9.75275V35.4078H182.532V0.399658H190.83L203.733 26.0999V0.399658Z" fill="#14315C"/>
<path d="M226.796 35.4078H220.593V0.399658H226.796V35.4078Z" fill="#14315C"/>
</svg>
