<svg xmlns="http://www.w3.org/2000/svg" version="1.1" xmlns:xlink="http://www.w3.org/1999/xlink" width="1000" height="1000"><metadata><rdf:RDF xmlns:rdf="http://www.w3.org/1999/02/22-rdf-syntax-ns#" xmlns:dc="http://purl.org/dc/elements/1.1/"><rdf:Description><dc:creator>RealFaviconGenerator</dc:creator><dc:source>https://realfavicongenerator.net</dc:source></rdf:Description></rdf:RDF></metadata><style>
    #light-icon {
      display: inline;
    }
    #dark-icon {
      display: none;
    }

    @media (prefers-color-scheme: dark) {
      #light-icon {
        display: none;
      }
      #dark-icon {
        display: inline;
      }
    }
  </style><g id="light-icon"><svg xmlns="http://www.w3.org/2000/svg" version="1.1" xmlns:xlink="http://www.w3.org/1999/xlink" width="1000" height="1000"><g><g transform="matrix(6.134969325153374,0,0,6.134969325153374,0,52.14723926380367)"><svg xmlns="http://www.w3.org/2000/svg" version="1.1" id="Layer_1" viewBox="0 0 163 146" width="163" height="146"><path d="M50.6,137.8c-.2-.9,2.3-3.4,2.9-5.5.8-3,1.3-6.9-4.7-5.2-6.6,2-4,7.6-2.4,10.1,1.6,2.5.8,4.3-.2,5.8-1.1,1.5,2.2,3,4.1,2.5,1.9-.5,3.7-1.6,4.4-3.1.7-1.5-3.8-3.7-4-4.6h0ZM50,133.9c-.6.9-1.3,1.7-2,.5,0,0-1.9-3.5,0-4.5,2.9-1.4,3.1,0,3.1.6,0,1.4-.7,2.7-1.2,3.3ZM61.7,67.3c.7.3,1.5,0,1.9-.8,1.1-1.8.4-9.5,0-10.7-.4-1.3-.8-1.9-1.3-1.8-.6,0-.7.8-.8,1.4l-1,9c-.3,1.6.3,2.6,1.1,2.9h0ZM76.1,127.3c-.2-1,2.3-3.4,2.9-5.5.8-3,1.3-6.9-4.7-5.2-6.6,2-4,7.6-2.4,10.1,1.6,2.5.8,4.3-.2,5.8-1.1,1.5,2.2,3,4.1,2.5,1.9-.5,3.7-1.6,4.4-3.1s-3.8-3.7-4.1-4.6h0ZM75.5,123.4c-.6.9-1.3,1.8-2,.5,0,0-1.9-3.5,0-4.5,2.9-1.4,3.1,0,3.1.6,0,1.4-.7,2.7-1.2,3.3ZM99.3,117.6c-.2-1,2.3-3.4,2.9-5.5.8-3,1.3-7-4.7-5.2-6.6,2-4,7.6-2.4,10.1,1.6,2.5.8,4.3-.2,5.8-1.1,1.5,2.2,3,4.1,2.5,1.9-.5,3.7-1.6,4.4-3.1.8-1.5-3.8-3.7-4.1-4.6h0ZM98.7,113.8c-.6.9-1.3,1.8-2,.5,0,0-1.9-3.5,0-4.5,2.9-1.4,3.1,0,3.1.6,0,1.4-.7,2.7-1.1,3.3ZM162,64.4c0-.2-.4-.5-1-.2-.8.4-17.3,7.2-38.2,15.9-26.8,11.1-61.7,25.5-86.8,36-5.5-3.1-10.9-6.2-15.4-11,1.3.6,2.8,1.1,4.2,1.5,16.9,4.6,37.1-4,45.4-9.2,11.5-7.2,22.6-18.1,25.8-23.8,2.1-3.8,2-7.1,1.1-9.6,2-1.5,5-4.5,5.6-8.6.4-3.2,0-5.5-.8-7.5,2.3-3.4,11.9-18,13.7-23.4.7-2.2.7-5.2-.4-8.1,0,0,.1-.2.2-.2,1.1-2.2,1.3-4.8.5-7.3-1-3.1-3.4-5.8-6.5-7.3-5.9-3-12.8-1.3-15.4,3.8-.7,1.4-1,2.9-1,4.4,0,0,0,0,0,0,0,0-6.9,9.2-20.3,14.8-13.6,5.7-25.7,5.9-25.8,5.9s-.2,0-.3,0c-.7-1.2-1.5-2.3-2.4-3.4-3.5-3.9-8.4-6.2-13.6-6.5-5.3-.3-10.3,1.5-14.2,5-3.9,3.5-6.2,8.4-6.5,13.6-.2,4.1.8,8,2.8,11.2-4.4,6.4-11.6,20-7.6,35.5,4.9,18.8,14.8,26.6,25.2,32.7-14.8,6.2-25.2,10.6-26.5,11.4-3.4,2-4,4.2-3.4,5.4.4,1,1.6,1.5,2.7,1.1,5.8-2.3,141.9-55.9,148-59.3,5.2-2.9,11.8-11.4,11.1-12.8ZM98.3,7.5c1.3-2.6,5.2-3.3,8.6-1.6,2,1,3.4,2.6,4,4.4,0,.2.1.4.2.6-.9-.6-1.9-1.2-3-1.7-3.7-1.4-7.2-1.4-10.2-.2,0-.6.2-1.1.4-1.6ZM96.2,17.6c.9-1.9,3.6-6,10.1-3.5,4.6,1.7,5.1,6.6,4.4,8.9-1.2,3.7-7.6,14-11.9,20.4,0,0-.1-.2-.2-.2-1.3-1.6-2.6-5.3-2.7-7,0-1.5-.8-3-2-4.1.1-3.4.7-10.8,2.3-14.4h0ZM90.8,36.3c0,2.7,1.7,7.5,3.8,10.1,2.6,3.1,3.5,4.4,2.9,8.3-.3,1.9-1.9,3.7-3.2,4.9-.3-.3-.6-.6-.8-.8-1.1-1.2-2.5-2-3.9-2.6,0,0,0,0,0,0-2.6-3.2-4-7.8-4.3-10.2-.3-2,.5-7,3.6-9.8.5-.5,1.1-.8,1.3-.7.3.1.6.6.6.8h0ZM74.5,29.1c6.9-2.9,12.1-6.5,15.8-9.7-.9,3.9-1.3,8.5-1.4,11.1-1.2.3-2.4.9-3.5,1.9-1.9,1.8-3.2,4-4,6.2-.7.4-1.4.7-2.1,1.1-7.1,3.5-17.2,5.2-17.3,5.2l.8,5c.4,0,9.8-1.7,17.4-5.1,0,.6,0,1.2,0,1.7.3,2,1.2,5.6,3,9.1-1.1.3-2.1.7-2.9,1.4l-2.4,2.3c-3.1,3.1-8.2,8.1-16.9,14.2-1.1.8-2.2,1.4-3.3,2.1-.6-3.8-1.8-11.6-2.8-16-1.1-5.3-4.7-19.7-5.9-24.4,4.4-.3,14.3-1.6,25.3-6.2h0ZM16.1,39.3c.2-3.7,1.8-7,4.5-9.5,2.8-2.5,6.4-3.7,10.1-3.6,7.6.4,13.5,6.9,13.1,14.5-.4,7.6-7,13.4-14.6,13-7.7-.4-13.5-6.9-13.1-14.5h0ZM11.4,89.9h0c-.6-1.6-1.1-3.4-1.6-5.3-3.3-12.5,2.1-23.9,6-30.1,3.3,3.1,7.6,5.1,12.5,5.4,8.4.5,15.9-4.5,19.1-11.7.9,3.4,1.7,6.8,2.3,9.2-1.1-1.4-2.6-2.8-3.2-1.6-1.2,2.2-1.9,4.1-5,4.4-6.7.5-9.9,1.1-6.5,6.4,3.4,5.5,6.5,3.2,7.4.6.7-2,1.2-4.6,2.1-4.9.9-.3,5.7,1.7,6.4.5.8,4.5,2,12.5,2.3,15-1.6.6-3,1.1-4.5,1.5-1.2-.6-5.4-2.6-9.7-5.2-3.7-2.2-7.4-4.9-9.6-6.5l-1.6-1.2c-.9-.6-1.6-.4-1.9,0-.1.2-.2.5-.2.8,0,.6.3,1.4,1.1,2.1l.6.6c2.3,2.2,8.6,8.1,13.3,10.8-4.9.4-8.3,0-8.4,0l-.7,5c.7,0,17.9,2.3,32.4-7.9,9-6.3,14.3-11.6,17.5-14.7l2.1-2c1.2-1,4.5-.5,6.2,1.2,2.5,2.6,3.7,5.1,1.7,8.8-2.4,4.4-12.4,14.7-24.1,22-8.9,5.6-27.3,12.4-41.4,8.6-6.5-1.8-11.5-5.8-14.7-11.8h0Z" style="fill: #14315c;"></path></svg></g></g></svg></g><g id="dark-icon"><svg xmlns="http://www.w3.org/2000/svg" version="1.1" xmlns:xlink="http://www.w3.org/1999/xlink" width="1000" height="1000"><g><g transform="matrix(6.134969325153374,0,0,6.134969325153374,0,52.14723926380367)"><svg xmlns="http://www.w3.org/2000/svg" version="1.1" id="Layer_1" viewBox="0 0 163 146" width="163" height="146"><path d="M50.6,137.8c-.2-.9,2.3-3.4,2.9-5.5.8-3,1.3-6.9-4.7-5.2-6.6,2-4,7.6-2.4,10.1,1.6,2.5.8,4.3-.2,5.8-1.1,1.5,2.2,3,4.1,2.5,1.9-.5,3.7-1.6,4.4-3.1.7-1.5-3.8-3.7-4-4.6h0ZM50,133.9c-.6.9-1.3,1.7-2,.5,0,0-1.9-3.5,0-4.5,2.9-1.4,3.1,0,3.1.6,0,1.4-.7,2.7-1.2,3.3ZM61.7,67.3c.7.3,1.5,0,1.9-.8,1.1-1.8.4-9.5,0-10.7-.4-1.3-.8-1.9-1.3-1.8-.6,0-.7.8-.8,1.4l-1,9c-.3,1.6.3,2.6,1.1,2.9h0ZM76.1,127.3c-.2-1,2.3-3.4,2.9-5.5.8-3,1.3-6.9-4.7-5.2-6.6,2-4,7.6-2.4,10.1,1.6,2.5.8,4.3-.2,5.8-1.1,1.5,2.2,3,4.1,2.5,1.9-.5,3.7-1.6,4.4-3.1s-3.8-3.7-4.1-4.6h0ZM75.5,123.4c-.6.9-1.3,1.8-2,.5,0,0-1.9-3.5,0-4.5,2.9-1.4,3.1,0,3.1.6,0,1.4-.7,2.7-1.2,3.3ZM99.3,117.6c-.2-1,2.3-3.4,2.9-5.5.8-3,1.3-7-4.7-5.2-6.6,2-4,7.6-2.4,10.1,1.6,2.5.8,4.3-.2,5.8-1.1,1.5,2.2,3,4.1,2.5,1.9-.5,3.7-1.6,4.4-3.1.8-1.5-3.8-3.7-4.1-4.6h0ZM98.7,113.8c-.6.9-1.3,1.8-2,.5,0,0-1.9-3.5,0-4.5,2.9-1.4,3.1,0,3.1.6,0,1.4-.7,2.7-1.1,3.3ZM162,64.4c0-.2-.4-.5-1-.2-.8.4-17.3,7.2-38.2,15.9-26.8,11.1-61.7,25.5-86.8,36-5.5-3.1-10.9-6.2-15.4-11,1.3.6,2.8,1.1,4.2,1.5,16.9,4.6,37.1-4,45.4-9.2,11.5-7.2,22.6-18.1,25.8-23.8,2.1-3.8,2-7.1,1.1-9.6,2-1.5,5-4.5,5.6-8.6.4-3.2,0-5.5-.8-7.5,2.3-3.4,11.9-18,13.7-23.4.7-2.2.7-5.2-.4-8.1,0,0,.1-.2.2-.2,1.1-2.2,1.3-4.8.5-7.3-1-3.1-3.4-5.8-6.5-7.3-5.9-3-12.8-1.3-15.4,3.8-.7,1.4-1,2.9-1,4.4,0,0,0,0,0,0,0,0-6.9,9.2-20.3,14.8-13.6,5.7-25.7,5.9-25.8,5.9s-.2,0-.3,0c-.7-1.2-1.5-2.3-2.4-3.4-3.5-3.9-8.4-6.2-13.6-6.5-5.3-.3-10.3,1.5-14.2,5-3.9,3.5-6.2,8.4-6.5,13.6-.2,4.1.8,8,2.8,11.2-4.4,6.4-11.6,20-7.6,35.5,4.9,18.8,14.8,26.6,25.2,32.7-14.8,6.2-25.2,10.6-26.5,11.4-3.4,2-4,4.2-3.4,5.4.4,1,1.6,1.5,2.7,1.1,5.8-2.3,141.9-55.9,148-59.3,5.2-2.9,11.8-11.4,11.1-12.8ZM98.3,7.5c1.3-2.6,5.2-3.3,8.6-1.6,2,1,3.4,2.6,4,4.4,0,.2.1.4.2.6-.9-.6-1.9-1.2-3-1.7-3.7-1.4-7.2-1.4-10.2-.2,0-.6.2-1.1.4-1.6ZM96.2,17.6c.9-1.9,3.6-6,10.1-3.5,4.6,1.7,5.1,6.6,4.4,8.9-1.2,3.7-7.6,14-11.9,20.4,0,0-.1-.2-.2-.2-1.3-1.6-2.6-5.3-2.7-7,0-1.5-.8-3-2-4.1.1-3.4.7-10.8,2.3-14.4h0ZM90.8,36.3c0,2.7,1.7,7.5,3.8,10.1,2.6,3.1,3.5,4.4,2.9,8.3-.3,1.9-1.9,3.7-3.2,4.9-.3-.3-.6-.6-.8-.8-1.1-1.2-2.5-2-3.9-2.6,0,0,0,0,0,0-2.6-3.2-4-7.8-4.3-10.2-.3-2,.5-7,3.6-9.8.5-.5,1.1-.8,1.3-.7.3.1.6.6.6.8h0ZM74.5,29.1c6.9-2.9,12.1-6.5,15.8-9.7-.9,3.9-1.3,8.5-1.4,11.1-1.2.3-2.4.9-3.5,1.9-1.9,1.8-3.2,4-4,6.2-.7.4-1.4.7-2.1,1.1-7.1,3.5-17.2,5.2-17.3,5.2l.8,5c.4,0,9.8-1.7,17.4-5.1,0,.6,0,1.2,0,1.7.3,2,1.2,5.6,3,9.1-1.1.3-2.1.7-2.9,1.4l-2.4,2.3c-3.1,3.1-8.2,8.1-16.9,14.2-1.1.8-2.2,1.4-3.3,2.1-.6-3.8-1.8-11.6-2.8-16-1.1-5.3-4.7-19.7-5.9-24.4,4.4-.3,14.3-1.6,25.3-6.2h0ZM16.1,39.3c.2-3.7,1.8-7,4.5-9.5,2.8-2.5,6.4-3.7,10.1-3.6,7.6.4,13.5,6.9,13.1,14.5-.4,7.6-7,13.4-14.6,13-7.7-.4-13.5-6.9-13.1-14.5h0ZM11.4,89.9h0c-.6-1.6-1.1-3.4-1.6-5.3-3.3-12.5,2.1-23.9,6-30.1,3.3,3.1,7.6,5.1,12.5,5.4,8.4.5,15.9-4.5,19.1-11.7.9,3.4,1.7,6.8,2.3,9.2-1.1-1.4-2.6-2.8-3.2-1.6-1.2,2.2-1.9,4.1-5,4.4-6.7.5-9.9,1.1-6.5,6.4,3.4,5.5,6.5,3.2,7.4.6.7-2,1.2-4.6,2.1-4.9.9-.3,5.7,1.7,6.4.5.8,4.5,2,12.5,2.3,15-1.6.6-3,1.1-4.5,1.5-1.2-.6-5.4-2.6-9.7-5.2-3.7-2.2-7.4-4.9-9.6-6.5l-1.6-1.2c-.9-.6-1.6-.4-1.9,0-.1.2-.2.5-.2.8,0,.6.3,1.4,1.1,2.1l.6.6c2.3,2.2,8.6,8.1,13.3,10.8-4.9.4-8.3,0-8.4,0l-.7,5c.7,0,17.9,2.3,32.4-7.9,9-6.3,14.3-11.6,17.5-14.7l2.1-2c1.2-1,4.5-.5,6.2,1.2,2.5,2.6,3.7,5.1,1.7,8.8-2.4,4.4-12.4,14.7-24.1,22-8.9,5.6-27.3,12.4-41.4,8.6-6.5-1.8-11.5-5.8-14.7-11.8h0Z" style="fill: #fff;"></path></svg></g></g></svg></g></svg>